<?xml version="1.0" encoding="UTF-8" standalone="no"?><svg xmlns="http://www.w3.org/2000/svg" xmlns:xlink="http://www.w3.org/1999/xlink" data-name="Layer 1" fill="#000000" height="508.8" preserveAspectRatio="xMidYMid meet" version="1" viewBox="117.0 282.0 850.0 508.8" width="850" zoomAndPan="magnify"><g id="change1_1"><path d="M967,381.41l-58.77,244.1a17.76,17.76,0,0,1-17.7,17.7l-396,2.87a17.76,17.76,0,0,1-17.7-17.7v-247a13.83,13.83,0,0,1,.06-1.45l-5.35-47.79H413A25.09,25.09,0,0,1,413,282H516.33a1.36,1.36,0,0,1,0,.27l5.59,49.9,3.54,31.53H949.3A17.76,17.76,0,0,1,967,381.41Z" fill="#75f0e2"/></g><g id="change2_1"><circle cx="535.55" cy="726.35" fill="#ffffff" r="64.5"/></g><g id="change2_2"><circle cx="717.59" cy="726.35" fill="#ffffff" r="64.5"/></g><g id="change1_2"><rect fill="#75f0e2" height="38.7" rx="17.2" width="182.04" x="268.94" y="385.2"/></g><g id="change1_3"><rect fill="#75f0e2" height="38.7" rx="17.2" width="182.04" x="268.94" y="626.01"/></g><g id="change1_4"><rect fill="#75f0e2" height="38.7" rx="19.35" width="333.98" x="117" y="502.74"/></g></svg>