<?xml version="1.0" encoding="UTF-8"?><svg xmlns="http://www.w3.org/2000/svg" xmlns:xlink="http://www.w3.org/1999/xlink" height="184.9" preserveAspectRatio="xMidYMid meet" version="1.1" viewBox="96.7 121.4 235.6 184.9" width="235.6" zoomAndPan="magnify">
 <g id="surface1">
  <g id="change1_1"><path d="m296.23 247.48c0 3.46-2.81 6.27-6.27 6.27h-139.53c-3.47 0-6.27-2.81-6.27-6.27v-102.95c0-3.46 2.8-6.27 6.27-6.27h139.53c3.46 0 6.27 2.81 6.27 6.27v102.95" fill="#fff"/></g>
  <path d="m2962.3 1777.2c0-34.6-28.1-62.7-62.7-62.7h-1395.3c-34.7 0-62.7 28.1-62.7 62.7v1029.5c0 34.6 28 62.7 62.7 62.7h1395.3c34.6 0 62.7-28.1 62.7-62.7z" fill="none" stroke="#224c8d" stroke-miterlimit="10" stroke-width="50" transform="matrix(.1 0 0 -.1 0 425.2)"/>
  <g id="change2_1"><path d="m289.96 138.26h-139.53c-3.47 0-6.27 2.81-6.27 6.27v13.59h152.07v-13.59c0-3.46-2.81-6.27-6.27-6.27" fill="#6db5e7"/></g>
  <path d="m2899.6 2869.4h-1395.3c-34.7 0-62.7-28.1-62.7-62.7v-135.9h1520.7v135.9c0 34.6-28.1 62.7-62.7 62.7z" fill="none" stroke="#224c8d" stroke-miterlimit="10" stroke-width="50" transform="matrix(.1 0 0 -.1 0 425.2)"/>
  <g id="change2_2"><path d="m223.59 215.6h-61.75v-44.94h61.75v44.94" fill="#6db5e7"/></g>
  <path d="m2235.9 2096h-617.5v449.4h617.5z" fill="none" stroke="#224c8d" stroke-miterlimit="10" stroke-width="50" transform="matrix(.1 0 0 -.1 0 425.2)"/>
  <g id="change1_2"><path d="m251.29 233.11c0 3.46-2.81 6.27-6.27 6.27h-139.54c-3.46 0-6.265-2.81-6.265-6.27v-102.95c0-3.46 2.805-6.27 6.265-6.27h139.54c3.46 0 6.27 2.81 6.27 6.27v102.95" fill="#fff"/></g>
  <path d="m2512.9 1920.9c0-34.6-28.1-62.7-62.7-62.7h-1395.4c-34.6 0-62.65 28.1-62.65 62.7v1029.5c0 34.6 28.05 62.7 62.65 62.7h1395.4c34.6 0 62.7-28.1 62.7-62.7z" fill="none" stroke="#224c8d" stroke-miterlimit="10" stroke-width="50" transform="matrix(.1 0 0 -.1 0 425.2)"/>
  <g id="change2_3"><path d="m245.02 123.89h-139.54c-3.46 0-6.265 2.81-6.265 6.27v13.59h152.08l-0.01-13.59c0-3.46-2.81-6.27-6.27-6.27" fill="#6db5e7"/></g>
  <path d="m2450.2 3013.1h-1395.4c-34.6 0-62.65-28.1-62.65-62.7v-135.9h1520.8l-0.1 135.9c0 34.6-28.1 62.7-62.7 62.7z" fill="none" stroke="#224c8d" stroke-miterlimit="10" stroke-width="50" transform="matrix(.1 0 0 -.1 0 425.2)"/>
  <g id="change2_4"><path d="m178.65 201.23h-61.76v-44.94h61.76v44.94" fill="#6db5e7"/></g>
  <path d="m1786.5 2239.7h-617.6v449.4h617.6z" fill="none" stroke="#224c8d" stroke-miterlimit="10" stroke-width="50" transform="matrix(.1 0 0 -.1 0 425.2)"/>
  <path d="m1906.6 2689.1h501.8" fill="none" stroke="#224c8d" stroke-miterlimit="10" stroke-width="50" transform="matrix(.1 0 0 -.1 0 425.2)"/>
  <path d="m1906.6 2589.8h501.8" fill="none" stroke="#224c8d" stroke-miterlimit="10" stroke-width="50" transform="matrix(.1 0 0 -.1 0 425.2)"/>
  <path d="m1906.6 2490.6h501.8" fill="none" stroke="#224c8d" stroke-miterlimit="10" stroke-width="50" transform="matrix(.1 0 0 -.1 0 425.2)"/>
  <path d="m1906.6 2391.2h501.8" fill="none" stroke="#224c8d" stroke-miterlimit="10" stroke-width="50" transform="matrix(.1 0 0 -.1 0 425.2)"/>
  <path d="m1906.6 2291.9h501.8" fill="none" stroke="#224c8d" stroke-miterlimit="10" stroke-width="50" transform="matrix(.1 0 0 -.1 0 425.2)"/>
  <g id="change2_5"><path d="m316.8 303.81c-3.12 0-6.06-1.22-8.26-3.42l-57.06-57.05c-4.55-4.56-4.55-11.98 0-16.53 2.21-2.21 5.14-3.43 8.27-3.43 3.12 0 6.05 1.22 8.26 3.43l57.05 57.05c4.56 4.55 4.56 11.96 0.01 16.53-2.21 2.2-5.15 3.42-8.27 3.42" fill="#6db5e7"/></g>
  <g id="change3_1"><path d="m259.75 220.88c-3.79 0-7.36 1.48-10.04 4.16-2.67 2.68-4.15 6.24-4.15 10.03s1.48 7.35 4.15 10.03l57.06 57.05c2.68 2.69 6.24 4.16 10.03 4.16s7.35-1.47 10.03-4.15c5.53-5.54 5.53-14.54 0-20.07l-57.05-57.05c-2.68-2.68-6.24-4.16-10.03-4.16zm0 5c2.35 0 4.7 0.9 6.49 2.69l57.06 57.06c3.58 3.58 3.58 9.4 0 12.99-1.8 1.79-4.15 2.69-6.5 2.69s-4.7-0.9-6.5-2.69l-57.05-57.05c-3.58-3.59-3.58-9.41 0-13 1.8-1.79 4.15-2.69 6.5-2.69" fill="#224c8d"/></g>
  <g id="change2_6"><path d="m239.71 262.65c-12.72 0-24.67-4.95-33.67-13.94-18.56-18.57-18.56-48.78 0-67.35 9-8.99 20.95-13.94 33.67-13.94s24.68 4.95 33.67 13.94c18.57 18.57 18.57 48.78 0 67.35-8.99 8.99-20.95 13.94-33.67 13.94" fill="#6db5e7"/></g>
  <g id="change3_2"><path d="m239.71 164.92c-13.39 0-25.97 5.21-35.44 14.68-19.54 19.54-19.54 51.34 0 70.88 9.47 9.46 22.05 14.67 35.44 14.67s25.97-5.21 35.44-14.67c19.54-19.55 19.54-51.34 0-70.88-9.47-9.47-22.05-14.68-35.44-14.68zm0 5c11.55 0 23.09 4.4 31.9 13.21 17.62 17.62 17.62 46.19 0 63.81-8.81 8.81-20.35 13.21-31.9 13.21s-23.09-4.4-31.9-13.21c-17.62-17.62-17.62-46.19 0-63.81 8.81-8.81 20.35-13.21 31.9-13.21" fill="#224c8d"/></g>
  <g id="change1_3"><path d="m239.71 251.63c-9.77 0-18.96-3.81-25.87-10.72-14.27-14.27-14.27-37.48 0-51.75 6.91-6.91 16.1-10.72 25.87-10.72 9.78 0 18.97 3.81 25.88 10.72 14.27 14.27 14.27 37.48 0 51.75-6.91 6.91-16.1 10.72-25.88 10.72" fill="#fff"/></g>
  <g id="change3_3"><path d="m239.71 175.94c-10.44 0-20.26 4.07-27.64 11.45-15.25 15.25-15.25 40.05 0 55.29 7.38 7.38 17.2 11.45 27.64 11.45 10.45 0 20.26-4.07 27.65-11.45 15.24-15.24 15.24-40.04 0-55.29-7.39-7.38-17.2-11.45-27.65-11.45zm0 5c8.73 0 17.45 3.33 24.11 9.99 13.31 13.31 13.31 34.9 0 48.21-6.66 6.66-15.38 9.99-24.11 9.99s-17.45-3.33-24.1-9.99c-13.32-13.31-13.32-34.9 0-48.21 6.65-6.66 15.37-9.99 24.1-9.99" fill="#224c8d"/></g>
 </g>
</svg>