<?xml version="1.0" encoding="UTF-8"?><svg xmlns="http://www.w3.org/2000/svg" xmlns:xlink="http://www.w3.org/1999/xlink" height="266.6" preserveAspectRatio="xMidYMid meet" version="1.0" viewBox="0.0 -2.0 217.6 266.6" width="217.6" zoomAndPan="magnify"><g data-name="Layer 2"><g><g id="change1_1"><path d="M117.62,254.19l1.65-140.7H96a88.72,88.72,0,0,0-3.4,20c-1.34,20.72,11,113.17,12.21,122.09l-.28.08s-9.36,6.46-16.87,5.49a1.15,1.15,0,0,0-1.1.43,1.63,1.63,0,0,0,.15,2.12,1.16,1.16,0,0,0,.89.41h29.85a2.25,2.25,0,0,0,2.23-1.93C119.87,260.73,117.62,254.19,117.62,254.19Z" fill="#fa9778"/></g><g id="change2_1"><path d="M123.74,105.63H98.55a2.21,2.21,0,0,0-2,1.25c-2.77,5.81-12.53,30,6.85,141.55h18.38Z" fill="#6376bf"/></g><g id="change3_1"><path d="M85.9,261.82a9.45,9.45,0,0,0,.17,1c0,.12.06.23.08.34a1.19,1.19,0,0,0,1.13.89c5.1.09,31.38.55,33.09-.21.65-.28,1-1.11,1.08-2.15,0-.31,0-.65,0-1a17.78,17.78,0,0,0-.7-4.71c-.41-1.2-.17-4.66-.08-5.89a.36.36,0,0,0-.35-.4h-.06l-16.22,1.68-.11,0a.38.38,0,0,0-.34.42c.64,6.68-13.94,6.53-16.39,7.16C86,259.29,85.77,260.61,85.9,261.82Z" fill="#ffe6de"/></g><g id="change4_1"><path d="M85.9,261.82a9.45,9.45,0,0,0,.17,1l35.38-1.13c0-.31,0-.65,0-1Z" fill="#450d20"/></g><g id="change4_2"><path d="M116.38,252.2a1.75,1.75,0,0,0-1.14,1,3,3,0,0,0-.17,2h0a3,3,0,0,0,1,1.69,1.72,1.72,0,0,0,1.46.4,1.68,1.68,0,0,0,1.13-1,3,3,0,0,0,.17-2,2.81,2.81,0,0,0-1.45-2A1.58,1.58,0,0,0,116.38,252.2Z" fill="#450d20"/></g><g id="change1_2"><path d="M141.78,133.45a50.25,50.25,0,0,0-3.62-20h-23.1l.84,141.78-.32.35s-9.36,6.46-16.87,5.49a1.15,1.15,0,0,0-1.1.43,1.63,1.63,0,0,0,.15,2.12,1.16,1.16,0,0,0,.89.41H128.5a2.25,2.25,0,0,0,2.23-1.93,18.67,18.67,0,0,0-.48-7.06C130.77,250.42,141.47,154.74,141.78,133.45Z" fill="#fa9778"/></g><g id="change2_2"><path d="M110.52,105.63h25.94s19.52,20.72-4.87,142.8H112.48Z" fill="#6376bf"/></g><g id="change4_3"><path d="M138.07,128a.49.49,0,0,1-.28-.09l-.3-.19a.51.51,0,0,1-.14-.7.5.5,0,0,1,.69-.14l.31.2a.51.51,0,0,1,.14.7A.52.52,0,0,1,138.07,128Z" fill="#450d20"/></g><g id="change4_4"><path d="M136.67,126a.46.46,0,0,1-.27-.09l-.3-.2A.5.5,0,0,1,136,125a.51.51,0,0,1,.7-.14l.3.2a.5.5,0,0,1-.28.92Z" fill="#450d20"/></g><g id="change4_5"><path d="M139.53,126.79a.49.49,0,0,1-.28-.09l-.3-.2a.5.5,0,1,1,.55-.83l.31.2a.49.49,0,0,1,.13.69A.48.48,0,0,1,139.53,126.79Z" fill="#450d20"/></g><g id="change3_2"><path d="M96.37,261.82a9.45,9.45,0,0,0,.17,1c0,.12.06.23.08.34a1.19,1.19,0,0,0,1.13.89c5.1.09,31.38.55,33.09-.21.65-.28,1-1.11,1.08-2.15,0-.31,0-.65,0-1a17.78,17.78,0,0,0-.7-4.71c-.41-1.2-.18-4.66-.08-5.89a.36.36,0,0,0-.35-.4h-.06l-16.22,1.68-.11,0a.38.38,0,0,0-.34.42c.64,6.68-13.94,6.53-16.4,7.16C96.42,259.29,96.24,260.61,96.37,261.82Z" fill="#ffe6de"/></g><g id="change4_6"><path d="M96.37,261.82a9.45,9.45,0,0,0,.17,1l35.38-1.13c0-.31,0-.65,0-1Z" fill="#450d20"/></g><g id="change4_7"><path d="M126.85,252.2a1.75,1.75,0,0,0-1.14,1,3,3,0,0,0-.17,2h0a3.07,3.07,0,0,0,1,1.69,1.72,1.72,0,0,0,1.46.4,1.68,1.68,0,0,0,1.13-1,3,3,0,0,0,.17-2,2.84,2.84,0,0,0-1.45-2A1.58,1.58,0,0,0,126.85,252.2Z" fill="#450d20"/></g><g id="change1_3"><path d="M129.74,23.63a3.07,3.07,0,0,0-3.46-2.17,2.59,2.59,0,0,0-.45.18c.21-4.93-.51-10.34-3.94-13.32-7.38-6.42-18-4.17-20.22,1.6C99.11,16.53,99,24.7,99.06,31.69a8.51,8.51,0,0,0,.34,2.71c1.18,3.32,5.91,5.36,9.1,6A13.54,13.54,0,0,0,120,37.53a15,15,0,0,0,4.91-8.37,6.59,6.59,0,0,0,2-.2A5.08,5.08,0,0,0,129.21,27,4.08,4.08,0,0,0,129.74,23.63Z" fill="#fa9778"/></g><g id="change4_8"><path d="M104.43,21.51c0,1.07-.42,1.94-1,1.94s-1-.87-1-1.94.43-1.94,1-1.94S104.43,20.44,104.43,21.51Z" fill="#450d20"/></g><g id="change4_9"><path d="M110.74,21.51c0,1.07.43,1.94,1,1.94s1-.87,1-1.94-.43-1.94-1-1.94S110.74,20.44,110.74,21.51Z" fill="#450d20"/></g><g id="change4_10"><path d="M104,27.38A4.74,4.74,0,0,0,105.46,29a3.61,3.61,0,0,0,2.12.7,3.66,3.66,0,0,0,2.11-.73,6.3,6.3,0,0,0,.82-.73,10.68,10.68,0,0,0,.63-.87c-.29.22-.56.44-.82.67s-.57.4-.87.55a3.86,3.86,0,0,1-1.87.53,3.79,3.79,0,0,1-1.89-.5A8.12,8.12,0,0,1,104,27.38Z" fill="#450d20"/></g><g id="change4_11"><path d="M106.59,30.82a1.55,1.55,0,0,0,1,.34,1.6,1.6,0,0,0,1-.34,4.38,4.38,0,0,1-1,.11A3.81,3.81,0,0,1,106.59,30.82Z" fill="#450d20"/></g><g id="change4_12"><path d="M110,14.79a2.28,2.28,0,0,1,1.47-.55,4.7,4.7,0,0,1,1.57.22,4,4,0,0,1,2.31,2,.44.44,0,0,1-.17.61.45.45,0,0,1-.53-.06l0,0a5.77,5.77,0,0,0-.93-.75,3.35,3.35,0,0,0-1-.42,4.14,4.14,0,0,0-1.12-.11,4.4,4.4,0,0,1-1.19-.07l-.12,0a.47.47,0,0,1-.35-.57A.42.42,0,0,1,110,14.79Z" fill="#450d20"/></g><g id="change4_13"><path d="M105.22,14.79a2.24,2.24,0,0,0-1.47-.55,4.6,4.6,0,0,0-1.56.22,3.86,3.86,0,0,0-1.38.79,3.92,3.92,0,0,0-.94,1.21.45.45,0,0,0,.18.61.44.44,0,0,0,.52-.06l0,0a5.83,5.83,0,0,1,.94-.75,3.2,3.2,0,0,1,1-.42,4.18,4.18,0,0,1,1.12-.11,4.5,4.5,0,0,0,1.2-.07l.12,0a.46.46,0,0,0,.34-.57A.42.42,0,0,0,105.22,14.79Z" fill="#450d20"/></g><g id="change4_14"><path d="M105.67,18.55c-.16.73-.29,1.46-.42,2.18s-.28,1.43-.48,2.11c0,.17-.1.34-.16.5a1.65,1.65,0,0,0-.16.62,1.24,1.24,0,0,0,.68,1.15,1.48,1.48,0,0,0,1.23.07,2.85,2.85,0,0,0,1-.59c-.68.26-1.47.46-2,.1a.76.76,0,0,1-.34-.69,1.41,1.41,0,0,1,.14-.43c.08-.19.14-.37.2-.55a10.77,10.77,0,0,0,.35-2.23A11.17,11.17,0,0,0,105.67,18.55Z" fill="#450d20"/></g><g id="change4_15"><path d="M128.35,24.88a1.5,1.5,0,0,0-.47-1.18,1.36,1.36,0,0,0-1.35-.13,2.54,2.54,0,0,0-1.09.79,4.42,4.42,0,0,0-.68,1.15.3.3,0,0,0,.17.39.31.31,0,0,0,.32-.07l0,0a2.64,2.64,0,0,1,1-.71.48.48,0,0,1,.43,0,1.31,1.31,0,0,1,.3.47c.15.39.24.85-.09,1a2.27,2.27,0,0,1-1.33.09,2.11,2.11,0,0,0,1.46.2.83.83,0,0,0,.51-.69,2.07,2.07,0,0,0-.08-.79,1.51,1.51,0,0,0-.43-.73,1,1,0,0,0-.91-.19,2.9,2.9,0,0,0-1.31.88l.51.3A3.15,3.15,0,0,1,126.7,24a1.09,1.09,0,0,1,1-.06A1.49,1.49,0,0,1,128.35,24.88Z" fill="#450d20"/></g><g id="change4_16"><path d="M100.21,15s.84-4,2-5.37c0,0,4.4,5.28,16.69,3.57,0,0-.68,4.46,0,5s2,.22,2.25,2.44-.2,5,1.34,4.52,2.19-4.43,5.21-3.41a3.48,3.48,0,0,1,1.92,4.62,8.5,8.5,0,0,0,1.95-6.17c-.12-4.12-1.21-9.41-7-11.2,0,0,.13-5.92-5.46-7.21S109.33,2.61,104,.28,97.5,10.83,100.21,15Z" fill="#450d20"/></g><g id="change1_4"><path d="M109.23,57a6.93,6.93,0,0,0-12.55-.91,27,27,0,0,0-2.4,6.16c-4.07,15.14-22.63,66.26-23.34,68.21a28.52,28.52,0,0,0-10.55-.54,1.72,1.72,0,0,0-.51,3.29c2.76,1.19,7.37,2,14.73.59a4.82,4.82,0,0,0,2.49-1.31c21.69-21.81,29.32-53.92,32.25-66.37C110.29,62.11,110,59.16,109.23,57Z" fill="#fa9778"/></g><g id="change5_1"><path d="M99.23,53a7.94,7.94,0,0,1,9.66,2.4,8.57,8.57,0,0,1,1.63,5.3c0,6.65-4.31,21.67-4.31,21.67L88.58,78.55l7.17-21.47A6.63,6.63,0,0,1,99.13,53Z" fill="#b4cbdd"/></g><g id="change4_17"><path d="M96.26 80.2L89.12 78.67 87.6 83.2 96.26 80.2z" fill="#450d20"/></g><g id="change1_5"><path d="M135.33,53.12a8.89,8.89,0,0,0-5.76-2.29,12.6,12.6,0,0,1-4.85-1.08c-2.13-6.65-.06-19.18.22-20.77a1,1,0,0,1,0-.17l-17.2,9.67a4.54,4.54,0,0,1,.52,1.89h0a21.53,21.53,0,0,1-.37,5.26c-.35,2-.82,3.76-1,4.47-1.8,2.19-4.33,3-8,5.21-5.62,3.37-2.14,12.72-1.16,22.2C98.81,87.91,99.18,102,99.18,102h35.24c-.94-8.68,1.27-21.61,3.71-35.87C139.35,59,137.49,55.15,135.33,53.12Z" fill="#fa9778"/></g><g id="change4_18"><path d="M107.92,45.64c9.35,1.18,14.08-10,14.26-10.4A11,11,0,0,1,115.5,40a18.29,18.29,0,0,1-7.15.36h-.06A21.05,21.05,0,0,1,107.92,45.64Z" fill="#450d20"/></g><g id="change5_2"><path d="M106.82,48.69c4.56,14.13,17.82-.37,17.82-.37s4.63.7,7.5.83,7.13,2.54,6.67,11.16S136,83.41,136,84.49s0,23.5,0,23.5H97.27l-1.82-48.3s-.36-5.81,4.94-7.5S106.82,48.69,106.82,48.69Z" fill="#b4cbdd"/></g><g id="change6_1"><path d="M124.64,48.32l-3.48,2.88a19,19,0,0,0-6.88,14.22l-.82,43.24h23.37V83a.39.39,0,0,0-.56-.35l-.36.18c-4.08,1.88-14.3-3.84-14.12-8.33.34-8.75-2.58-22.26,8.94-25.43A16.73,16.73,0,0,0,124.64,48.32Z" fill="#d13f40"/></g><g id="change1_6"><path d="M137.23,57a6.93,6.93,0,0,0-12.55-.91,27,27,0,0,0-2.4,6.16c-4.07,15.16-22.67,66.36-23.34,68.22a28.42,28.42,0,0,0-10.58-.55,1.72,1.72,0,0,0-.52,3.29c2.42,1,11.88.55,15.14.35a3,3,0,0,0,1.91-.86c21.86-21.81,29.52-54.1,32.46-66.58C138.29,62.11,138,59.16,137.23,57Z" fill="#fa9778"/></g><g id="change5_3"><path d="M127.23,53a8,8,0,0,1,9.67,2.4,8.64,8.64,0,0,1,1.62,5.3c0,6.65-4.3,21.67-4.3,21.67l-17.64-3.78,7.17-21.47A6.63,6.63,0,0,1,127.13,53Z" fill="#b4cbdd"/></g><g id="change4_19"><path d="M117.13 78.67L133.1 82.09 116.47 80.64 117.13 78.67z" fill="#450d20"/></g><g id="change4_20"><path d="M131.14,80.07a.5.5,0,0,1-.28-.08l-.3-.2a.5.5,0,0,1-.14-.69.49.49,0,0,1,.69-.14l.31.2a.5.5,0,0,1-.28.91Z" fill="#450d20"/></g><g id="change4_21"><path d="M129.74,78.05a.45.45,0,0,1-.27-.08l-.3-.2a.5.5,0,0,1-.15-.69.51.51,0,0,1,.7-.15l.3.21a.5.5,0,0,1,.14.69A.48.48,0,0,1,129.74,78.05Z" fill="#450d20"/></g><g id="change4_22"><path d="M132.6,78.87a.48.48,0,0,1-.28-.08l-.3-.2a.5.5,0,0,1,.55-.84l.31.21a.5.5,0,0,1-.28.91Z" fill="#450d20"/></g><g id="change6_2"><path d="M106.82,48.69l.48,1.43a42.17,42.17,0,0,1,2.06,16.31l-2.54,42.23H96.89L95.75,57.08S94.94,52.14,106.82,48.69Z" fill="#d13f40"/></g><g id="change3_3"><rect fill="#ffe6de" height="3" rx=".46" width="7.75" x="97.87" y="63.49"/></g><g id="change4_23"><path d="M105.38,54.1a.46.46,0,0,1-.27-.09l-.3-.19a.51.51,0,0,1-.15-.7.5.5,0,0,1,.69-.14l.31.2a.51.51,0,0,1,.14.7A.52.52,0,0,1,105.38,54.1Z" fill="#450d20"/></g><g id="change4_24"><path d="M104,52.08a.49.49,0,0,1-.28-.09l-.3-.2a.49.49,0,0,1-.14-.69A.5.5,0,0,1,104,51l.3.2a.5.5,0,0,1,.14.7A.49.49,0,0,1,104,52.08Z" fill="#450d20"/></g><g id="change4_25"><path d="M106.84,52.9a.51.51,0,0,1-.28-.09l-.3-.2a.5.5,0,1,1,.55-.83l.31.2a.5.5,0,0,1,.14.69A.51.51,0,0,1,106.84,52.9Z" fill="#450d20"/></g><g id="change4_26"><path d="M99.67,106.93a.5.5,0,0,1-.28-.08l-.3-.2a.5.5,0,0,1,.55-.84l.31.21a.5.5,0,0,1,.14.69A.52.52,0,0,1,99.67,106.93Z" fill="#450d20"/></g><g id="change4_27"><path d="M98.27,104.91a.53.53,0,0,1-.27-.08l-.3-.2a.5.5,0,0,1-.15-.69.51.51,0,0,1,.7-.15l.3.21a.5.5,0,0,1-.28.91Z" fill="#450d20"/></g><g id="change4_28"><path d="M101.13,105.73a.57.57,0,0,1-.28-.08l-.3-.2a.5.5,0,0,1,.55-.84l.31.21a.5.5,0,0,1,.14.69A.52.52,0,0,1,101.13,105.73Z" fill="#450d20"/></g><g id="change5_4"><path d="M20.12 70.2H26.490000000000002V91.83H20.12z" fill="#b4cbdd"/></g><g id="change5_5"><path d="M63,105.7H51.44L40.16,89.32H17.33V130.5H67V109.74A4,4,0,0,0,63,105.7Z" fill="#b4cbdd"/></g><g id="change5_6"><rect fill="#b4cbdd" height="8.88" rx=".69" width="11.96" x="17.33" y="64.45"/></g><g id="change4_29"><path d="M28.78 91.82H29.78V123.05999999999999H28.78z" fill="#450d20"/></g><g id="change4_30"><path d="M26.82 65.3H27.82V71.39999999999999H26.82z" fill="#450d20"/></g><g id="change4_31"><path d="M62.85,127.9a.6.6,0,0,1-.28-.08l-.3-.2a.5.5,0,0,1-.14-.69.49.49,0,0,1,.69-.15l.31.2a.51.51,0,0,1,.14.7A.52.52,0,0,1,62.85,127.9Z" fill="#450d20"/></g><g id="change4_32"><path d="M61.45,125.88a.53.53,0,0,1-.27-.08l-.3-.2a.5.5,0,1,1,.55-.84l.3.2a.5.5,0,0,1-.28.92Z" fill="#450d20"/></g><g id="change4_33"><path d="M64.31,126.7a.57.57,0,0,1-.28-.08l-.3-.2a.51.51,0,0,1-.14-.7.5.5,0,0,1,.69-.14l.31.2a.51.51,0,0,1,.14.7A.52.52,0,0,1,64.31,126.7Z" fill="#450d20"/></g><g id="change4_34"><path d="M19.83,72.11a.49.49,0,0,1-.28-.09l-.3-.2A.5.5,0,1,1,19.8,71l.31.2a.5.5,0,0,1,.14.69A.51.51,0,0,1,19.83,72.11Z" fill="#450d20"/></g><g id="change4_35"><path d="M18.43,70.09a.46.46,0,0,1-.27-.09l-.3-.2a.5.5,0,0,1-.15-.69.51.51,0,0,1,.7-.14l.3.2a.5.5,0,0,1-.28.92Z" fill="#450d20"/></g><g id="change4_36"><path d="M21.29,70.91a.49.49,0,0,1-.28-.09l-.3-.2a.5.5,0,0,1-.14-.69.49.49,0,0,1,.69-.14l.31.2a.49.49,0,0,1,.13.69A.48.48,0,0,1,21.29,70.91Z" fill="#450d20"/></g><g id="change6_3"><path d="M19.33 236.52H217.64999999999998V264.27H19.33z" fill="#d13f40"/></g><g id="change7_1"><path d="M183.66 236.52H217.65V264.27H183.66z" fill="#c73b3c"/></g><g id="change8_1"><path d="M13.42 139.58H217.64999999999998V241.47000000000003H13.42z" fill="#fcc574"/></g><g id="change6_4"><path d="M0 130.5H217.65V139.59H0z" fill="#d13f40"/></g><g id="change9_1"><path d="M179.66 139.58H217.65V241.47000000000003H179.66z" fill="#fcc16a"/></g><g id="change7_2"><path d="M176.66 130.5H217.65V139.59H176.66z" fill="#c73b3c"/></g><g id="change4_37"><path d="M52.59 172.75H125.56V173.75H52.59z" fill="#450d20" transform="rotate(-27.32 89.045 173.223)"/></g><g id="change4_38"><path d="M63.8 181.03H114.56V182.03H63.8z" fill="#450d20" transform="rotate(-29.06 89.199 181.541)"/></g><g id="change4_39"><path d="M17.9,145.33a.46.46,0,0,1-.28-.08l-.3-.2a.49.49,0,0,1-.14-.69.5.5,0,0,1,.69-.15l.3.21a.5.5,0,0,1-.27.91Z" fill="#450d20"/></g><g id="change4_40"><path d="M16.5,143.31a.6.6,0,0,1-.28-.08l-.3-.2a.5.5,0,0,1,.55-.84l.31.21a.5.5,0,0,1,.14.69A.52.52,0,0,1,16.5,143.31Z" fill="#450d20"/></g><g id="change4_41"><path d="M19.35,144.13a.53.53,0,0,1-.27-.08l-.3-.2a.5.5,0,0,1-.15-.69.51.51,0,0,1,.7-.15l.3.21a.5.5,0,0,1,.14.69A.51.51,0,0,1,19.35,144.13Z" fill="#450d20"/></g><g id="change4_42"><path d="M164.2,234.17a.46.46,0,0,1-.27-.09l-.3-.2a.5.5,0,1,1,.54-.83l.31.2a.5.5,0,0,1,.14.69A.51.51,0,0,1,164.2,234.17Z" fill="#450d20"/></g><g id="change4_43"><path d="M162.81,232.14a.48.48,0,0,1-.28-.08l-.3-.2a.5.5,0,1,1,.55-.83l.3.2a.49.49,0,0,1,.14.69A.47.47,0,0,1,162.81,232.14Z" fill="#450d20"/></g><g id="change4_44"><path d="M165.66,233a.5.5,0,0,1-.28-.08l-.3-.2a.5.5,0,0,1,.55-.84l.31.21a.5.5,0,0,1-.28.91Z" fill="#450d20"/></g><g id="change8_2"><path d="M180.58 73.59L177.43 70.68 174.22 73.65 170.96 70.64 167.71 73.65 164.5 70.68 161.35 73.59 158.13 70.61 154.91 73.59 151.76 70.68 148.55 73.65 145.3 70.64 145.3 75.19 145.3 76.55 145.3 130.5 183.8 130.5 183.8 77.18 183.8 75.19 183.8 70.61 180.58 73.59z" fill="#fcc574"/></g><g id="change4_45"><path d="M157.15 102.02H171.49V103.02H157.15z" fill="#450d20" transform="rotate(-35.58 164.324 102.518)"/></g><g id="change4_46"><path d="M156.5 105.02H175.63V106.02H156.5z" fill="#450d20" transform="rotate(-37.54 166.084 105.53)"/></g><g id="change4_47"><path d="M149.48,79.87a.51.51,0,0,1-.28-.09l-.3-.2a.5.5,0,0,1-.14-.69.49.49,0,0,1,.69-.14l.31.2a.5.5,0,0,1,.14.69A.51.51,0,0,1,149.48,79.87Z" fill="#450d20"/></g><g id="change4_48"><path d="M148.08,77.84a.45.45,0,0,1-.27-.08l-.3-.2a.5.5,0,1,1,.55-.83l.3.2a.5.5,0,0,1,.14.69A.47.47,0,0,1,148.08,77.84Z" fill="#450d20"/></g><g id="change4_49"><path d="M150.94,78.66a.48.48,0,0,1-.28-.08l-.3-.2a.5.5,0,0,1-.14-.69.49.49,0,0,1,.69-.14l.31.2a.5.5,0,0,1-.28.91Z" fill="#450d20"/></g></g></g></svg>