<?xml version="1.0" encoding="UTF-8" standalone="no"?><svg xmlns="http://www.w3.org/2000/svg" xmlns:xlink="http://www.w3.org/1999/xlink" fill="#000000" height="1299.7" preserveAspectRatio="xMidYMid meet" version="1" viewBox="220.1 355.1 1569.8 1299.7" width="1569.8" zoomAndPan="magnify"><g id="change1_1"><path d="M1628.92,1654.86H381.08c-88.78,0-161.01-72.23-161.01-161.01V516.15c0-88.78,72.23-161.01,161.01-161.01h245.36c31.99,0,62.96,9.4,89.54,27.2,26.59,17.79,47.09,42.83,59.29,72.4l29.83,72.29h823.81c88.78,0,161.01,72.23,161.01,161.01v805.8c0,88.78-72.23,161.01-161.01,161.01Z" fill="#ffbd59"/></g><g id="change2_1"><path d="M1338.04,836.69H671.96c-27.61,0-50,22.39-50,50v413.6c0,27.61,22.39,50,50,50h666.08c27.61,0,50-22.39,50-50v-413.6c0-27.61-22.39-50-50-50Zm-50,210.5h-305.65v-110.5h305.65v110.5Zm-405.65-110.5v110.5h-160.43v-110.5h160.43Zm-160.43,210.5h160.43v103.1h-160.43v-103.1Zm260.43,103.1v-103.1h305.65v103.1h-305.65Z" fill="#14469b"/></g></svg>