<?xml version="1.0" encoding="UTF-8" standalone="no"?><svg xmlns="http://www.w3.org/2000/svg" xmlns:xlink="http://www.w3.org/1999/xlink" fill="#000000" height="451" preserveAspectRatio="xMidYMid meet" version="1" viewBox="-0.1 -1.7 501.7 451.0" width="501.7" zoomAndPan="magnify"><g><g id="change1_3"><path d="M265.99,235.72c-0.5,0-1.01-0.11-1.49-0.34c-1.73-0.83-2.47-2.9-1.64-4.63l21.68-45.41 c0.83-1.73,2.9-2.47,4.63-1.64c1.73,0.83,2.47,2.9,1.64,4.63l-21.68,45.41C268.53,234.99,267.29,235.72,265.99,235.72z" fill="#020232"/></g><g id="change1_4"><path d="M238.56,235.72c-0.5,0-1.01-0.11-1.49-0.34c-1.73-0.83-2.47-2.9-1.64-4.63l21.68-45.41 c0.83-1.73,2.9-2.47,4.63-1.64c1.73,0.83,2.47,2.9,1.64,4.63l-21.68,45.41C241.11,234.99,239.86,235.72,238.56,235.72z" fill="#020232"/></g><g id="change2_1"><path d="M452.84,361.51c0,0,19.58,35.12,6.9,60.66c14.65-5.07,29.7-40.14,29.7-40.14 c-8.72-5.94-17.02-34.31-17.02-34.31L452.84,361.51z" fill="#e19e81"/></g><g id="change3_3"><path d="M459.74,422.18c0,0-18.49,8.16-14.26,9.15c4.23,0.99,23.72,1,25.08,0c1.37-1,15.86-27.91,17.73-27.29 s5.62,11.19,5.62,11.19l4.72-2.37c2.34-10.83,2.94-29.68-9.2-30.81c0,0-20.79,31.87-21.41,32.49 C467.41,415.15,459.74,422.18,459.74,422.18z" fill="#020232"/></g><g id="change3_4"><path d="M352.05,46.83c0.47,3.6,1.39,10.75-5.37,13.54c-6.77,2.79-12.59,18.48-1.83,22.66 c10.75,4.18,20.69-5.93,22.17-11.85c1.48-5.93-3.21-28.07-3.21-28.07L352.05,46.83z" fill="#020232"/></g><g id="change2_2"><path d="M312.76,365.27c0,0-10,44.64-24.86,50.27c15.37,2.05,44.56-22.54,44.56-22.54 c-5.12-9.22,11.27-39.95,11.27-39.95L312.76,365.27z" fill="#e19e81"/></g><g id="change1_5"><path d="M354.05,170.54c-18.91,27.9-39.26,162.18-41.29,194.73c15.6,1.36,35.94-6.1,35.94-6.1 c8.14-16.28,8.82-61.72,9.49-68.5c2.71-10.17,23.99-63.07,29.63-67.14c0.89,27.13,14.46,61.04,21.92,69.17 c7.46,8.14,44.76,80.71,44.76,80.71s35.94-13.56,37.3-18.99c-6.1-13.56-32.66-81.38-52.62-87.49 c1.75-25.77,9.21-90.78-17.92-111.85L354.05,170.54z" fill="#020232"/></g><g id="change4_1"><path d="M414,86.22c-4.72,24.36-5.42,34.82-4.03,43.88s10.46,21.37,17.43,24.98 c-14.64,9.88-59.55,19.64-73.36,15.46c0,0,6.83-32.07,0-36.95c0,0-18.15,24.32-30.7,31.99c0,0-7.07-14.82-14.74-18.31 c-0.41,0.35,6.42-1.82,10.72-10.89c3.88-8.19,8.77-55.74,26.7-61.34c17.93-5.6,58.37-14.66,58.37-14.66S417.37,66.65,414,86.22z" fill="#a4c2db"/></g><g id="change2_3"><path d="M342.04,16.19c-2.18,12.19,4.33,15.35,2.73,22.36c-1.6,7.01,6.11,13.13,12.32,12.54 c1.91,8.13-3.96,22.56-11.06,23.94c3.98,18.46,12.6,19.67,20.33,17.3c12.18-3.72,26.08-26.4,26.08-26.4l-12.96-38.95 c0,0-22.65-19.39-23.29-18.09S342.04,16.19,342.04,16.19z" fill="#e19e81"/></g><g id="change3_5"><path d="M355.68,15.31c4.14,11.61,14.22,11.67,15.51,18.43s10.95,29.29,21.25,32.19s23.5,5.47,21.57,20.28 c17.71-1.61,29.29-21.89,23.82-28.65s-16.74-0.19-21.25-6.53s2.25-19.87-6.12-21.48c-8.37-1.61-13.59,2.08-18.03-1.29 c-5.65-4.28-2.51-16.14-13.53-24.74c-5-3.9-13.49-5.2-24.85-0.62c-6.87,2.77-5.37,7.33-12.47,10.23s-7.26,17.24,2.32,18.12 C341.89,24.09,354.05,24.5,355.68,15.31z" fill="#020232"/></g><g id="change1_6"><path d="M237.76,352.86H48.45c-0.14,0-0.28-0.01-0.42-0.03l-25.52-3.13c-1.52-0.19-2.73-1.34-3-2.84L0.05,237.04 c-0.16-0.93,0.05-1.88,0.61-2.64c0.55-0.76,1.39-1.27,2.32-1.4l29.28-4.18c0.16-0.02,0.33-0.03,0.49-0.03h233.23 c1.06,0,2.07,0.49,2.73,1.32c0.66,0.84,0.9,1.93,0.65,2.97L241.13,350.2C240.76,351.76,239.36,352.86,237.76,352.86z M48.66,345.91 h186.36l26.56-110.19H33.01l-25.48,3.64L25.9,343.12L48.66,345.91z" fill="#020232"/></g><g id="change1_7"><path d="M48.44,352.86c-1.71,0-3.21-1.27-3.44-3.01L29.32,232.71c-0.25-1.9,1.08-3.65,2.98-3.91 c1.9-0.26,3.65,1.08,3.91,2.98l15.69,117.14c0.25,1.9-1.08,3.65-2.98,3.91C48.75,352.85,48.6,352.86,48.44,352.86z" fill="#020232"/></g><g id="change3_6"><circle cx="249.41" cy="177.48" fill="#020232" r="5.95"/></g><g id="change1_8"><path d="M253.44,406.2H32.76c-1.92,0-3.48-1.56-3.48-3.48s1.56-3.48,3.48-3.48H248.8l-14.38-48.88 c-0.54-1.84,0.51-3.77,2.35-4.31c1.84-0.55,3.77,0.51,4.32,2.35l15.69,53.34c0.31,1.05,0.1,2.19-0.55,3.06 C255.57,405.69,254.54,406.2,253.44,406.2z" fill="#020232"/></g><g id="change3_7"><path d="M287.91,415.54c0,0-20.61,6.34-17.27,9.13c3.34,2.78,24.21,0.28,25.88,0c1.67-0.28,23.66-13.92,25.05-12.52 c1.39,1.39,0,12.52,0,12.52h5.29c6.96-8.63,15.96-25.2,5.61-31.66c0,0-32.89,19.14-33.72,19.42S287.91,415.54,287.91,415.54z" fill="#020232"/></g><g id="change4_2"><path d="M337.16,144.88c7.1,5.29,17.81,16.16,16.9,25.65c14.76,0.77,46.78-38.88,52.1-54.59 c5.32-15.71-30.9-16.02-30.9-16.02S353.11,142.47,337.16,144.88z" fill="#a4c2db"/></g><g id="change2_4"><path d="M337.16,144.88c0,0-28.96,24.78-36.45,21.9c-7.49-2.88-20.17-3.57-26.51,0.23c-6.34,3.8-9,21.09-3.93,23.39 c5.08,2.31,12.33,5.76,17.64,4.03c5.31-1.73,9.92-9.22,9.92-9.22c6.34,1.73,15.83-4.03,18-5.19c6.78,0,38.23-9.5,38.23-9.5 S354.98,153.39,337.16,144.88z" fill="#e19e81"/></g><g id="change2_5"><path d="M308.62,147.26c0,0-26.09,22.32-32.84,19.72c-6.75-2.6-18.17-3.21-23.88,0.21s-8.11,19-3.54,21.07 c4.57,2.08,11.11,5.19,15.89,3.63c4.78-1.56,8.93-8.3,8.93-8.3c5.71,1.56,14.26-3.63,16.21-4.67c6.11,0,34.44-8.55,34.44-8.55 S324.67,154.93,308.62,147.26z" fill="#e19e81"/></g><g id="change3_8"><ellipse cx="347.89" cy="32.84" fill="#020232" rx="1.06" ry="1.82" transform="rotate(-14.389 347.856 32.841)"/></g><g id="change3_9"><ellipse cx="357.57" cy="31.06" fill="#020232" rx="1.06" ry="1.82" transform="rotate(-14.389 357.54 31.058)"/></g><g id="change4_3"><path d="M352.84,39.82c-0.8,0-1.4-0.23-1.76-0.7c-0.77-0.98-0.33-2.67,0.19-4.63c0.18-0.69,0.37-1.39,0.51-2.09 l0.97,0.19c-0.15,0.73-0.34,1.45-0.52,2.15c-0.41,1.56-0.84,3.17-0.38,3.76c0.18,0.22,0.53,0.33,1.07,0.32l0.03,0.99 C352.91,39.82,352.88,39.82,352.84,39.82z" fill="#a4c2db"/></g><g id="change4_4"><path d="M353.29,43.07c-0.98,0-1.86-0.19-2.41-0.56l0.55-0.82c0.56,0.38,2.25,0.61,3.99,0.06 c1.05-0.33,2.44-1.05,3.05-2.62l0.93,0.36c-0.76,1.94-2.42,2.81-3.68,3.21C354.93,42.95,354.08,43.07,353.29,43.07z" fill="#a4c2db"/></g><g id="change3_10"><path d="M345.32,29.15l-0.97-0.22c0.31-1.41,2.62-2.35,4.23-2.1l-0.15,0.98C347.15,27.62,345.48,28.44,345.32,29.15 z" fill="#020232"/></g><g id="change3_11"><path d="M354.38,26.32l-0.65-0.75c1.54-1.33,4.85-1.4,6.47-0.52l-0.47,0.87C358.45,25.23,355.56,25.3,354.38,26.32z" fill="#020232"/></g><g id="change4_5"><path d="M357.1,51.59l-0.01-0.99c5.22-0.05,10.44-3.37,12.98-8.25l0.88,0.46C368.24,48,362.67,51.53,357.1,51.59z" fill="#a4c2db"/></g><g id="change3_12"><path d="M337.59,145.13l-0.86-0.5c0.94-1.63,4.42-3.38,8.81-5.59c3.89-1.96,8.31-4.19,11.15-6.54 c4.48-3.7,16.52-23.65,22.99-34.37c1.99-3.3,3.43-5.69,4.08-6.66l0.83,0.55c-0.64,0.95-2.15,3.45-4.06,6.62 c-6.5,10.77-18.6,30.81-23.21,34.62c-2.93,2.42-7.4,4.67-11.34,6.66C342.08,141.9,338.38,143.76,337.59,145.13z" fill="#020232"/></g><g id="change3_13"><path d="M354.18,171.02l-0.25-0.96c8.26-2.19,43.82-24.18,51.75-54.23l0.96,0.25 C398.61,146.52,362.55,168.8,354.18,171.02z" fill="#020232"/></g><g id="change3_14"><path d="M348.21,138.34c-11.71-15.45-9.47-31.54-7.1-39.76l0.95,0.28c-2.33,8.04-4.52,23.79,6.93,38.89 L348.21,138.34z" fill="#020232"/></g><g id="change4_6"><path d="M438.59,293.14l-0.45-0.88c5.18-2.66,7.66-9.31,7.48-11.98c-0.04-0.61-0.21-1.03-0.46-1.11 c-0.35-0.13-1.18,0.23-2.44,1.59c-4.45,4.8-12.53,6.56-15.1,4.31c-0.85-0.75-1.83-2.55,1.21-6.23c1.81-2.19,3.61-3.32,5.19-4.32 c2.55-1.61,4.39-2.77,4.68-7.62l0.99,0.06c-0.31,5.36-2.44,6.7-5.14,8.4c-1.52,0.96-3.24,2.05-4.95,4.11 c-1.08,1.3-2.68,3.66-1.32,4.85c2.03,1.78,9.44,0.39,13.72-4.24c1.43-1.54,2.61-2.16,3.5-1.85c0.46,0.16,1.03,0.64,1.12,1.98 C446.84,283.68,443.83,290.44,438.59,293.14z" fill="#a4c2db"/></g><g id="change4_7"><path d="M387.58,223.96c-9.21-5.24-17.35-13.44-17.43-13.52l0.71-0.7c0.08,0.08,8.12,8.19,17.21,13.36 L387.58,223.96z" fill="#a4c2db"/></g><g id="change4_8"><path d="M341.74,305.98c-0.59,0-1.2-0.02-1.8-0.07l0.08-0.99c6.27,0.51,12.11-1.91,13.58-5.64 c0.3-0.77,0.09-1.06,0.02-1.16c-0.77-1.05-4.53-0.78-7.85-0.53c-4.24,0.31-8.24,0.61-9.67-1.04c-0.47-0.53-0.37-1.03-0.27-1.28 c1.19-2.98,18.81-4.77,22.33-5.1l0.09,0.99c-8.5,0.79-20.79,2.7-21.5,4.47c-0.02,0.04-0.04,0.11,0.1,0.26 c1.11,1.27,5.22,0.97,8.85,0.7c4.09-0.3,7.62-0.56,8.72,0.93c0.4,0.55,0.44,1.26,0.1,2.11 C353.02,303.46,347.79,305.98,341.74,305.98z" fill="#a4c2db"/></g><g id="change4_9"><path d="M303.46,167.32c-0.64,0-1.3-0.01-1.99-0.03l-0.77-0.02c-3.01-0.06-5.16-0.61-7.24-1.15 c-1.85-0.48-3.6-0.93-5.88-1.02l0.04-0.99c2.38,0.09,4.27,0.58,6.09,1.05c2.02,0.53,4.12,1.07,7.01,1.12l0.77,0.02 c5.93,0.13,9.18,0.19,18.6-8.82l0.69,0.72C312.15,166.45,308.49,167.32,303.46,167.32z" fill="#a4c2db"/></g><g id="change3_15"><circle cx="293.63" cy="186.83" fill="#020232" r="5.95"/></g><g id="change4_10"><path d="M267.87,189.43c-3.67-2.11-4.47-7.11-3.37-10.74c1.17-3.85,3.99-6.92,6.48-9.63l0.73,0.67 c-2.42,2.63-5.16,5.62-6.26,9.25c-0.99,3.27-0.31,7.74,2.91,9.59L267.87,189.43z" fill="#a4c2db"/></g><g id="change4_11"><path d="M281.04,193.82c-2.7-5.34-1.37-12.35,3.11-16.31l0.66,0.74c-4.15,3.67-5.39,10.17-2.89,15.12L281.04,193.82 z" fill="#a4c2db"/></g><g id="change4_12"><path d="M275.06,193.64l-0.38-0.92c-2.44-6-0.6-13.36,4.37-17.51l0.64,0.76c-4.6,3.84-6.33,10.61-4.16,16.19 l0.31,0.18L275.06,193.64z" fill="#a4c2db"/></g><g id="change4_13"><path d="M268.56,189.81c-1.6-5.89,0.14-12.51,4.43-16.86l0.71,0.7c-4.05,4.1-5.69,10.34-4.18,15.9L268.56,189.81z" fill="#a4c2db"/></g><g id="change4_14"><path d="M257.23,191.04c-2.56-4.95-2.66-11.15-0.25-16.18l0.9,0.43c-2.28,4.76-2.19,10.62,0.24,15.3L257.23,191.04z" fill="#a4c2db"/></g><g id="change4_15"><path d="M251.38,189.53c-1.53-4.97-1.23-10.55,0.83-15.32l0.91,0.39c-1.97,4.56-2.26,9.89-0.79,14.63L251.38,189.53 z" fill="#a4c2db"/></g><g id="change4_16"><path d="M248.24,188.48c-1.59-5.06-1.07-10.65,1.42-15.33l0.88,0.47c-2.37,4.45-2.86,9.75-1.35,14.56L248.24,188.48 z" fill="#a4c2db"/></g><g><g id="change3_2"><circle cx="90.38" cy="427.5" fill="#020232" r="21.83"/></g><g id="change1_2"><circle cx="90.38" cy="427.5" fill="#020232" r="13.52"/></g></g><g><g id="change3_1"><circle cx="236.55" cy="427.5" fill="#020232" r="21.83"/></g><g id="change1_1"><circle cx="236.55" cy="427.5" fill="#020232" r="13.52"/></g></g><g id="change1_9"><path d="M75.6,352.86c-1.77,0-3.29-1.35-3.46-3.15L61.03,232.57c-0.18-1.91,1.22-3.61,3.13-3.79 c1.92-0.18,3.61,1.22,3.79,3.13l11.11,117.14c0.18,1.91-1.22,3.61-3.13,3.79C75.82,352.86,75.71,352.86,75.6,352.86z" fill="#020232"/></g><g id="change1_10"><path d="M104.32,352.86c-1.81,0-3.33-1.4-3.46-3.23L92.5,232.49c-0.14-1.91,1.3-3.58,3.22-3.71 c1.93-0.13,3.58,1.3,3.71,3.22l8.35,117.14c0.14,1.91-1.3,3.58-3.22,3.71C104.49,352.86,104.41,352.86,104.32,352.86z" fill="#020232"/></g><g id="change1_11"><path d="M134.8,352.86c-1.84,0-3.38-1.44-3.47-3.3l-5.88-117.14c-0.1-1.92,1.38-3.55,3.3-3.65 c1.92-0.12,3.55,1.38,3.65,3.3l5.88,117.14c0.1,1.92-1.38,3.55-3.3,3.65C134.92,352.86,134.86,352.86,134.8,352.86z" fill="#020232"/></g><g id="change1_12"><path d="M218.34,352.86c-0.11,0-0.22,0-0.33-0.02c-1.91-0.18-3.31-1.88-3.13-3.79l11.11-117.14 c0.18-1.91,1.88-3.31,3.79-3.13c1.91,0.18,3.31,1.88,3.13,3.79L221.8,349.71C221.63,351.51,220.12,352.86,218.34,352.86z" fill="#020232"/></g><g id="change1_13"><path d="M191.48,352.86c-0.08,0-0.17,0-0.25-0.01c-1.91-0.14-3.36-1.8-3.22-3.71L196.36,232 c0.14-1.91,1.79-3.35,3.71-3.22c1.91,0.14,3.36,1.8,3.22,3.71l-8.36,117.14C194.81,351.46,193.29,352.86,191.48,352.86z" fill="#020232"/></g><g id="change1_14"><path d="M162.24,352.86c-0.06,0-0.12,0-0.18,0c-1.92-0.1-3.39-1.73-3.3-3.65l5.88-117.14 c0.1-1.92,1.74-3.42,3.65-3.3c1.92,0.1,3.39,1.73,3.3,3.65l-5.88,117.14C165.61,351.42,164.08,352.86,162.24,352.86z" fill="#020232"/></g><g id="change1_15"><path d="M255.73,273.84H9.35c-1.92,0-3.48-1.56-3.48-3.48s1.56-3.48,3.48-3.48h246.38c1.92,0,3.48,1.56,3.48,3.48 S257.65,273.84,255.73,273.84z" fill="#020232"/></g><g id="change1_16"><path d="M247.01,312.06H16.25c-1.92,0-3.48-1.56-3.48-3.48c0-1.92,1.56-3.48,3.48-3.48h230.76 c1.92,0,3.48,1.56,3.48,3.48C250.49,310.5,248.93,312.06,247.01,312.06z" fill="#020232"/></g></g></svg>